<mxfile host="app.diagrams.net" modified="2021-06-03T03:32:19.665Z" agent="5.0 (Windows NT 10.0; Win64; x64) AppleWebKit/537.36 (KHTML, like Gecko) Chrome/90.0.4430.212 Safari/537.36" etag="BOxnz5-euh4qu4Ncgxto" version="14.7.3" type="github">
  <diagram id="ZtjhFwrb02_eZitzbqu8" name="Page-1">
    <mxGraphModel dx="1422" dy="761" grid="1" gridSize="10" guides="1" tooltips="1" connect="1" arrows="1" fold="1" page="1" pageScale="1" pageWidth="827" pageHeight="1169" math="0" shadow="0">
      <root>
        <mxCell id="0" />
        <mxCell id="1" parent="0" />
        <mxCell id="5tPz83MsegSp8FZxeWKG-2" value="" style="rounded=1;whiteSpace=wrap;html=1;direction=east;" vertex="1" parent="1">
          <mxGeometry x="170" y="330" width="120" height="60" as="geometry" />
        </mxCell>
        <mxCell id="5tPz83MsegSp8FZxeWKG-11" value="" style="shape=image;verticalLabelPosition=bottom;labelBackgroundColor=#ffffff;verticalAlign=top;aspect=fixed;imageAspect=0;image=data:image/jpeg,/9j/4AAQSkZJRgABAQEASABIAAD/2wBDAAgGBgcGBQgHBwcJCQgKDBQNDAsLDBkSEw8UHRofHh0aHBwgJC4nICIsIxwcKDcpLDAxNDQ0Hyc5PTgyPC4zNDL/wAALCAJEBBMBAREA/8QAHAABAAICAwEAAAAAAAAAAAAAAAcIBAYBAwUC/8QARRABAAECBAMDCAYIBQMFAQAAAAECAwQFBhEHEpEXIdIxQVFSVmFxgQgTGCJV0RQVMlSSobHhFjNCYsEjcoIkQ1PC8DX/2gAIAQEAAD8An8AAAAAAAAAAAAAAAAAAAAAAAAAAAAAAAAAAAAAAAAAAAAAAAAAAAAAAAAAAAAAAAAAAAAAAAAAAAAAAAAAAAAAAAAAAAAAAAAAAAAAAAAAAAAAAAAAAAAAAAAAAAAAAAAAAAAAAAAAAAAAAAAAAAAAAAAAAAAAAAAAAAAAAAAAAAAAAAAAAAAAAAAAAAAAAAAAAAAAAAAAAAAAAAAAAAAAAAAAAAAAAAAAAAAAAAAAAAAAAAAAAAAAAAAAAAAAAAAAAAAAAAAAAAAAAAAAAAAAAAAAAAAAAAAAAAAAAAAAAAAAAAAAAAAAAAAAAAAAAAAAAAAAAAAAAAAAAAAAAAAAAAAAAAAAAAAAAAAAAAAAAAAAAAAAAAAAAAAAAAAAAAAAAAAAAAAAAAAAAAAAAAAAAAAAAAAAAAAAAAAAAAAAAAAAAAAAAAAAAAAAAAAAAAAAAAAAAAAAAAAAAAAAAAAAAAAAAAAAAAAAAAAAAAAAAAAAAAAAAAAAAAAAAAAAAAAAAAAAAAAAAAAAAAAAAAAAAAAAAAAAAAAAAAAAAAAAAAAAAAAAAAAAAAAAAAAAAAAAAAAAAAAAAAAAAAAAAAAAAAAAAAAAAAAAAAAAAAAAAAAAAAAAAAAAAAAAAAAAAAAAAAAAAAAAAAAAAAAAAAAAAAAAAAAAAAAAAAAAAAAAAAAAAAAAAAAAAAAAAAAAAAAAAAAAAAAAAAAAABxMxEbzPc1vP9d6c03RV+scys0XYjutRVvVV7oRxmf0isos1zRl+W4i7t3c1zaIn4bS8j7SF/n//AIlrk9PNO/8AV6+W/SKye9VFOYZbiLUz3c1vaYj47ykfINeac1JTEZfmdmu7MbzamraqGyRMTG8T3OQAAAAAAAAAAAAAAAAAAAAAAAAAAAAAAAAAAAAAAAAeRn+oss01l1eNzPE0WbdMd0TP3qp9ER5ZV61bxmz/AFPiqst01avYbD1TNMTapmq7XHk37vNPwfWm+BefZ7VTjs9xUYW3XPNNFU81dcT74nun4pSyrgjo7LqKYu4OrGVR5ZxExVv0iHudmeiuTk/w3gOX0cn93hZtwQ0dmNFUWcJVg6p8k4eYiI6xKL9ScC8+yOqcdkOKjF26PvRTT92unbv33me/5PjSfGXUGlsXGW6ktXsTh6Z2n62mYu0RHomfN8lhcg1HlepsuoxuWYqi9bqjeYifvU+6Y8sPXAAAAAAAAAAAAAAAAAAAAAAAAAAAAAAAAAAAAAAAAahrvX2WaJyybuIrivF1xP1NiJ76p9M+iPervYwurOMepZrqqr/R4q3qmZmLVmnz7ebf+qwmi+HGSaNwlP6NYpvYzaJrxFyImrf3b+SG5gDTdacOcl1lhKoxNmmzi9vuYi3TEVRPm39KvWJwmq+Dmo6bluqunDVVfdqiZm3ep9E+bdYjQev8t1vlcXsPXFvGURH12Hme+ifd6Y97bwAAAAAAAAAAAAAAAAAAAAAAAAAAAAAAAAAAAAAABqGv9d4HRGSV4m7VTcxlcbWLG/fVPpn3K9ac05n3FvVVzHY67c/RYr3vXqvJTHq0/wAln8h0/l2msstYDLcPTas0RtvEd8++ZeqAA8rPsgy/UWWXcBmOHpu2rlMx3x30z6YnzKwak03n3CTVVvHZfduzg5r3tX48ldO/7NXv2/qsJoHXeB1vktOIs1RRi7cRTfszPfTPp+E7NwAAAAAAAAAAAAAAAAAAAAAAAAAAAAAAAAAAAAAAB4Wq9TYDSmR3syx1yKYppmKKfPXV5oiPjsrNgcJnnGTXNVy/VVTh4q+/XtPLZt790fHb+i0Gn8hwOmsosZdgLVNu1apiJmI76p88y9YAAHlZ/kOB1JlF/Lcws03LN2mY74/ZnzTHvhV7McFnnBzW9N+xXNViapmiqI+7do3ieWf5LM6U1RgdWZHZzHA3ImKqY56N++irzxL3QAAAAAAAAAAAAAAAAAAAAAAAAAAAAAAAAAAAAAGPjMXZwGDu4rE1xRZtUzVXVVO0RCq+stRZnxV1tay3LKa6sHFfLh7cb+TfvrmPh/RYjQ+jsFozILWAw1MTemIqv3Nu+qrz9/o3mdm0AAADWNb6PwWssgvZfiaKYvbb2bu3fRV5u/0e5XXR2os04U61vZbmNFVOErufV37dXk281Ufy71qcFjLGPwdrF4W5TcsXqYqorpneJifOyAAAAAAAAAAAAAAAAAAAAAAAAAAAAAAAAAAAAAAV8438Qa8ViI0rlN2ZjmiMTVRPfVM+Sn+cS27g3w9p0zktOaY61H6yxVMTMVR326fNHx75SqAAAAizjDw9p1Rk9WZYK3H6ywlE1Ryx33KfR/OZ+TTeB/EGvC4n/C2bXJpo3n9Hrrn9mr1Z6RELCgAAAAAAAAAAAAAAAAAAAAAAAAAAAAAAAAAAAADROKOuLejdM3K7NymMxvxNOHp374n1vl3Ii4NaGuanz25qXN6Kq8PZuTVTFUd1yufP74756LLxERG0OQAAAHzMRVTMTG8TG0wrXxn0Ne05ndGqMppmjD3bkV1ckf5dzffm+czHRLHC3XFvWOmrc3a4jH4ba3eome+dvJPv3iP5t+AAAAAAAAAAAAAAAAAAAAAAAAAAAAAAAAAAAABi4/HYfLcDfxmJriizZomuqqZ80RuqpmmLzDi9xKow9mZjDzXyUbd8UWomImrb4bStHkeT4bIcnw2W4Simi1ZoimNvPPnnq9IAAAAHm53k+Fz7J8TluLoiqzeommd432nbumPfCrmX4nMOEPEqq3fir9Gpr5a6e/au1MxMT8dtlq8ux1jM8vsY3DV012b1EVUVRO8TDKAAAAAAAAAAAAAAAAAAAAAAAAAAAAAAAAAAAAEB8eNcztRpbL7kzXVMVYiaZ7/L3U/HeP5tp4L6GjTWnYzHGWojMMZEV98d9FHmiPjEwlMAAAAARdxn0NTqXTlWY4S1vmOCpmqnljvrp88fHyNT4Ea5mmq5pbMru1VMzOGmue/30/1lPoAAAAAAAAAAAAAAAAAAAAAAAAAAAAAAAAAAADW9b6ow+k9M4rMr1UfWU0zFqjz1VeiP6/JXvhdpnE6+1xezrNYquWLVf192uqO6uvfeIifdMQtNTTTRTFNMRERG0RHmh9AAAAAD5mIqpmJjeJ7phVrinpe/oPW1nO8siq3hb9yLtqae6KKvPT0ieqwWhtU2NXaXwuZWqqfraqYpvURP7NcRG8NlAAAAAAAAAAAAAAAAAAAAAAAAAAAAAAAAAAADyKt8W9U3tbaysZDlkzcw2HufVU009/PX55+W8x8k+aD0rZ0hpbC5bRTT9dFPNeriP2q5jvn+TaAAAAAAGsa60th9W6XxWX3aYm7yzVZr276ao9Hx8nzQDwm1NidD63vZDmszbsX6/qblEz3U3ImYjb4zK0cVRVTExO8TG8S+gAAAAAAAAAAAAAAAAAAAAAAAAAAAAAAAAAAEecXdZUaV0net2bkU4/F0zbtRE/eiJjaao+HcjrgPoycdjr2qcxtzVFFUxh+aP2qp75qj+cLEAAAAAAArzx60XOExdvVWAommK6opv8kfs1b91XxmZ/kkHhDrONV6Tt279cTjcHEWrlO/fMR+zPSISKAAAAAAAAAAAAAAAAAAAAAAAAAAAAAAAAAADqv37eGw9y/dqim3bpmqqZ80RG8qoamx+M4qcTqMFhpqmx9b9TZ274poidpq+fdK0WRZRhsiyXC5bhaIotWKIpiI9Plmeu70gAAAAAAedneUYbPcnxOXYqiKrV+iae+PJMx3T8lXNPY/GcKuJ1WGxXNThYuTbu0+tbmd4n47bLXYe/bxWHt37VUVW7lMVUzE7xMS7gAAAAAAAAAAAAAAAAAAAAAAAAAAAAAAAAABEPHTWn6lyCnJcHd5cZjP29p76aP798MLgLor9X5XXqHG2tsRifu2OaO+mjzz8+6U1gAAAAAACFuPOiv1llFOosHb3xGEja9yx5aPPVPw2hk8CtafrrIqskxdzfFYKPubz31Uen47zKYAAAAAAAAAAAAAAAAAAAAAAAAAAAAAAAAAAGHmeYWMry6/jsRXFFqzRNVVU+RVXB28dxY4pTdriqMPVd56onvi3bid9vntMfNa7CYSzgcHZwtiiKLVmmKKIjzREbQyAAAAAAAB0YrC2cbhbmHv24rtXKZpqpq8kwqjj7GO4U8UouWuaMNTd5qKp7ouW6u6em89FqcrzLD5vlmHx+FriqxfoiuiqPRMbswAAAAAAAAAAAAAAAAAAAAAAAAAAAAAAAAAEFcfNZ1WMNa0zgrv/UvfexMUz/p81M/ylsXBLRv+HtLxmWJt8uOx8RVO8bTTR5qZ9++6UwAAAAAAAEX8atGf4k0vOOw1G+NwO9cbR31UeePlvMtX4Ba0m/Yu6Yxlz79vevDzVPfMeePltCeAAAAAAAAAAAAAAAAAAAAAAAAAAAAAAAAAB5Woc7w+ncixeaYmqIt2KJqiJnbmmI7oj4qxaKyfF8S+JdzH43mrw1N366/M+Tlidoj+i19uim1biiimKaaY2iIjaIfYAAAAAAADru2qL1uq3XETRVExVE+eJVT11k+K4bcSbeY4GKreFquxeszT3RMb71U9No+azWnc6w2ochwmZ4a5FdF+iJmY81W3fHynd6wAAAAAAAAAAAAAAAAAAAAAAAAAAAAAAAACu/HvWVWMx1nS2BqmqiiYrv8ALP7VX+mPl3pJ4TaOo0npG1N2iIxuKiLt6du+N/JHTZv4AAAAAAAANB4s6Pp1ZpC9FuiJxmEibtmYjvnaN5iPjtsjTgPrGrL8xvaWx9U0xcqmbPNP7NUTtNPzmZ6LEgAAAAAAAAAAAAAAAAAAAAAAAAAAAAAAAA17WepMPpXTGLzO/XFM0UTFuN++ap7o2+cwr1wq07idc68u57mMTXYsXZv3Kpjuqrmd4j4eVaSmmKaYppjaIjaI9D6AAAAAAAABxMbxsq1xX03iNDa5s55lkTbsX6/rrdVMfsV+fefTM7ysJovUuH1VpjCZlZriaq6Ii5Tv301eiWxAAAAAAAAAAAAAAAAAAAAAAAAAAAAAAAAOJnaN5Vm42asu6j1TZ01l9XPZw1yKJimf2rtU7be+PImzh1pO3pDSWFwPL/6iumLl+Z8vNPfMfKZltwAAAAAAAAA1PiHpS3q/SWKwHLT+kRHPZqmPJXETt/VCHBbVV3TGq7+ncxqqos4mqaYpr7oorjz/ADiIhZsAAAAAAAAAAAAAAAAAAAAAAAAAAAAAAABpvErVtvSOksTiYriMVdpm3h6fPNU/23Q1wQ0lcz/Ud7UeZUzcs2Kpmia+/nrn8t4lZcAAAAAAAAABWrjjpKvIdQ2NTZdTyWsRXE1zTG3Lcjv3+G0QmHhlq2jVukcNia64nF2aYt36fPzRHl+fe3QAAAAAAAAAAAAAAAAAAAAAAAAAAAAAAAfM1RTEzVMREd8zM+RVbiXqHEcQOIFnKMu3uWLNz6izTT/qnzz/AFWN0jpzD6W01hMrsRH/AEqI56oj9qrzzL3gAAAAAAAAAHh6t0/h9T6bxmWX6Iqi7RPLM+aqO+P5xCuHDbPsVw74hXcozKaqLF65+j3qfJHNvtTV8N5laiium5RFVMxNNURMTHniX2AAAAAAAAAAAAAAAAAAAAAAAAAAAAAAAjbjHrSnS+lbmFsXIjHY6mbduInaYp8lVUe+N4aRwE0ZN25e1Rj7UzNUzThprjyzv31R894WAAAAAAAAAAABAPHzRk0za1RgbcxVG1vE8kbberV3efy97c+Detf8UaXowuJricdgoi3XEz31U+aemySwAAAAAAAAAAAAAAAAAAAAAAAAAAAAAAdGLxVrBYO7ir9UU2rVM11TM+aI3VRzXE4zizxQixYmr9GruclMx5KLVM7TV02labKMsw+T5VhsBhqKabdmiKYiPP6Z6s8AAAAAAAAAAGDm2WYfOMrxGAxNEVWr9FVFW8eTeNt1WMuxGN4T8UJt3+aMNTc5a6Y8ldqqd4/lstbg8XZx2DtYmxXFdq7TFVNUeSYlkAAAAAAAAAAAAAAAAAAAAAAAAAAAAAACE+O+t/0DL6NOYG7/AOpxG1V+aZ76ad+6PjvEs7gdoj9R5HOdYy1EY3GRvRzR30Uebb4xMJeAAAAAAAAAAAERccdDxneQfrrCW98bgaZmrljvqo8/xnyPO4D63/Tcvr01jrv/AF8PG+H5p23p9WPf5ZTcAAAAAAAAAAAAAAAAAAAAAAAAAAAAAA8fU2fYbTWQYvNMVXEUWaJmI89U+aIVn0Xk+M4ocR7mY4+JqsUXPr8RV5Ypjfupj3bx/NauzZt2LNFm1RFNFFMU00xG0REeSHaAAAAAAAAAAAOu7aovW6rdymKqKo2qpqjeJhVTW+S4zhjxFt5lgOajC13PrbFUeTlnummfftv1WV0vqDDan0/hc1w1Uct6mJqpif2atu+n5PaAAAAAAAAAAAAAAAAAAAAAAAAAAAAAHEztG6tHGjWV3UuorWm8rqquYexXEVcnf9ZXP5bzHyTFwy0bb0dpWxh6qI/TL0fWX6tu/mmI7vh3N2AAAAAAAAAAAAaXxL0da1hpW/h4iIxVmJuWK9u+Jjyx847kM8F9Y3tMaju6czWqbeHv18tNNc/5dyJ22+cz/JZmJiYiYneJ8jkAAAAAAAAAAAAAAAAAAAAAAAAAAAABH3FjW1vSOmLlFi5tmGKpmizTE99PdtNXy3hGXA7RNeb5rd1TmVuardquZsc0ftVzO81e+PLCxwAAAAAAAAAAAAK5cctEV5XmVGqcsommi7XH1/JH7Fe/dV85meiS+E2t6NXaYt271Ufp+EiLd2mZ76ojyTHy2SEAAAAAAAAAAAAAAAAAAAAAAAAAAAADEzHH4fK8vv43FVxRZs0zVVVPuhVPHYjMeLvEmLVqav0eqvajbyUWYnbm29O2y02SZThsiyfDZdhKIotWaIpiI88+eer0QAAAAAAAAAAAAednOU4XPMpxOXYuiKrN+iaZ3jfbeNt498Ks4S9mPCLiVNFyKv0amvaqnzXLUzvHz8i1eWZhh82y2xjsJci5YvURVRVTPdMMwAAAAAAAAAAAAAAAAAAAAAAAAAAAAV54469qx2LjSmV1zVFNURiJon9qrfup6xHVvPB7QdGltPU43FW4/WWLpiquZjvop23in+fek0AAAAAAAAAAAAARpxg0HRqvTteNwtvfMsHTNVvaO+unz0//AL0NB4H69qy/F1aWzW5NNFVU/o9Vc7ctXnp+Hd/NYkAAAAAAAAAAAAAAAAAAAAAAAAAAABoHFPXdrRuna4s1UzmOJpmmxRv+z/umPR3In4N6GvalzqvU2cUVXMNar5qOeN/rK/T3+jeJ39yy0RtG0OQAAAAAAAAAAAABxMRMTE+dWvjNoW7pzOqNT5TTNGHu3IqriiP8uuJ337vJHkSrwr13a1lp23TfuR+ssNTFN+mZ76v93z2lIAAAAAAAAAAAAAAAAAAAAAAAAAAAA8vPs8wencnxGZ465FFmzTM98/tT5oj3yq5at5vxh4hzNU1fUc+8zHktWonb8uq02TZRhciynD5dgrcUWLNMU0xHn98vRAAAAAAAAAAAAAAefnGU4XPMqv5fjLdNdm9TNMxMb7eiVWMRazXg7xD57fNOHiven0XbUz5J9+39Vo9P55hNRZNh8zwVymu1epie7zT54+U7vUAAAAAAAAAAAAAAAAAAAAAAAAAAB13r1vD2a7t2qKbdETVVVM90RCr3E/W2M17qajIcm5q8FbufV0U0/wDu177bz7vzTdw20LhtFaeotctNWNvRFd+5t37+j5f8N3AAAAAAAAAAAAAABpXEjQ2H1rp25YimKcdZiasPc279/R8J2hB3DLWuM4f6nuZFm/NRgblzkuU1f+3VvtFXw/NaK1dov2qbtuuKqKo3pqid4mHYAAAAAAAAAAAAAAAAAAAAAAAAAA4mdo3QLxo4mTvXpnJLszcqnlxF2id99/8ATG3/AO73q8GOGkZLhKNQZtZj9OvU/wDRoqj/AC6Z88++e5MwAAAAAAAAAAAAAAAhvjNw1jO8JXn+V2v/AF9mne9RTHfcpjz++fI8XgxxMmmaNM53emKqZ2w12udtv9s7/Pqn4AAAAAAAAAAAAAAAAAAAAAAAAABEvF3idb01g68nyu5TVmd6naqqJ/yYnz/HyNL4P8Nb2c4yjU+e0TVh+bnsU17zN2r1p3835LGU0xTEUxEREd0RHmfQAAAAAAAAAAAAAAA+ZiKqZiYiYnyxKuvGHhrdyjGVaoyKiqmzNUV36Lfd9XVv5Y283kbhwh4n29R4K3k2aXaacys0xFFUz/m0x5/j+aXAAAAAAAAAAAAAAAAAAAAAAAAABGvFDibhdH5dXg8FcpuZrdpmKKYnf6v3z70T8NeHmO13nVWfZ5NycFTc56pr8t6rfyR7vyWcw+HtYTD0WLNFNFuiNqaYjaIh3AAAAAAAAAAAAAAAAOnEYe1isPXYv0U12q6ZpqpmN4mJVl4mcO8dobOIz/IqrlOCm5z0zb8tmrffb4fklThdxOwur8vowONrptZrZpiKqap2+tj0x/JJgAAAAAAAAAAAAAAAAAAAAAAAAI04m8UsHpDB3MDgq6b2bXKZimmJ3i3759/uRJw/4f5pxDz2rPM7qrnAzXzXLle+92d99o38yzuBwWHy7BWsJhLVNqxapimiimNoiGSAAAAAAAAAAAAAAAADFx2Bw2ZYK7g8Xapu2LtM010VRvExKsXEHh7mfD3O6c8yOq7+hRXz266N97M+idvN5UtcMOKWE1fg6MDjq6bOb26dqqZ7oue+n8kmgAAAAAAAAAAAAAAAAAAAAAAA4mdo3lEHE7jFhsht3MqyO5TfzGqJpruU98Wv7tA4ecMMy1tmH6+1BVdjA1Vc+9czNV6fyWWwOBw2XYO3hMHZptWLdMU00UxtEQyQAAAAAAAAAAAAAAAABjY3BYbMMJcwuKtU3bNynaqmqN4mFauIfDDMtFZjOfadquTgaaufeiZ5rM7+Sfc3zhjxiw2e27WU55cps5jG1Nu5PdTd83VMMTExvHfEuQAAAAAAAAAAAAAAAAAAAAAAY2Ox+Fy3C14rGX6LNmiN6q652hXviJxnxWcXLmTaX+sps1zy1YiiJmq55tqY9E/BlcNeDF3F3Led6ppmeaeejC1zvNXvqT9Ys28PZptWaKaLdMbU00xtEQ7QAAAAAAAAAAAAAAAAAHVes28RaqtXqKa7dUTFVMxvExKAuJfBivD13c70xRMRTM13MLR3TT596WHw94zYvJrtGTap56rNM8lN+qNqrfuqj0fJYTA5hhcywtGJwd+i9Zrjemqmd2UAAAAAAAAAAAAAAAAAAAAAA0bWfFDIdH2aqLl6nE43b7uHtVRM7++Y32+aA8wzvWPFvOP0XDUXZws1bRao3i3RHpqnybpo4fcIcs0lbt4zH00YzNPLz1RvTbn/AGx6fek0AAAAAAAAAAAAAAAAAAARnxA4Q5Xq23XjMDRTg8z2356Y2puT/uj0+9CuAzrWXCLOP0XE03IwsVbVWqt6rVceflnybp90ZxRyHV9iim3fpw2NmPvYe7VETv7pnbdvIAAAAAAAAAAAAAAAAAAAAOJnaGsam1/p7Slqqcxx1EXoj7tiiYmur4QgvVPGrPtT36su0/h6sNYuTy0zRG9yuJ7vlPwlk6P4H5tnl+nMdUXrli1VPN9XVM1XK/jv5I+afcj09lenMBRhMswtuzbpjbeI+9Pxnyy9YAAAAAAAAAAAAAAAAAAAB5Wd6eyvUWBrwmZYW3ft1RtvVH3o+E+WEA6x4HZrkt+rMNLXrt+1TvVFuiqYu0e6nby9WLpbjTn+l79OW5/h6sVYtzy1c8bXKI/5+cp00xxA09qu1TOX46j66Y3mxXMRXT8YbRE7w5AAAAAAAAAAAAAAAAAAAYWNzbAZdbqrxeMsWaaY3nnriJ6I71Fxz0xk1NVGDrrzG/Hdy2o2iJ98zEIqzri5rPV92cJk9m5hrVc8sRhqJmqqPRM98M7TXA3P8+uxjNQ4qrC2pneqiqrmrq+E98Qm7S/D7T2k7URl+Com/ttVfrjeqr4+ZtQAAAAAAAAAAAAAAAAAAAAA1XVHD/T+rLE04/BURe22pv0RtVT8PMhDUnAzP8huVYzT2JnF2qZ5qaKauW5Tt6Z7olg5Lxa1no+7GEzizcxNmidppxNExMR6KZ7oSrp3jnpjOYpoxtVeXX57uW7HNEz7piJSLgs2y/MbdNeExli9TVG8clcTPRmgAAAAAAAAAAAAAAAA+Llyi1TzV1U0x6ZnaHlYrVWQYKJnE5xgrc0+WKr9MT03atmXGbRmWbxXmFd6qPJFmjnifnDS80+kbgbfNRluU3Ls/wCmuuvl2+Uw03G8Xte6lqqs5Zaqotz3RGFszNUf+UOvCcMOIOsK4v5lXdi3VO814y7PNH/jV3pB079HvKMHNFzOsXcxlcd/Jb+5TE+ifLulPJtNZNkFmKMsy+xhu7aaqKIiqr4zHleuAAAAAAAAAAAAAAAAAAAAAADyc503k+f2Zt5ngLGJjbaJroiao+Ez5EV6h+j3lGMmq5kuMuYOue/kuffpmfRHk2R7jOGHEDR9yq9ltd2q3TO8V4O7PNP/AI097swXF7Xum6qbOZ26q7cd0xirMxVP/lLc8q+kZgbnLRmeVXLUx5a6K+bf5RDdMt4zaMzOYpozCqzVPli/RyRHzltOE1VkGOiJwucYK7M+am/TM9N3q27tF2nmt1xVHpid4fYAAAAAAADzM9zzAadym7mWZXYt4a1MRVV75naP5tM7bdGfv1XSPzO23Rn79V0j8ztt0Z+/VdI/M7bdGfv1XSPzO23Rn79V0j8ztt0Z+/VdI/NxVxu0ZTTM/plc+6Ij83X256N/eL38Mfmduejf3i9/DH5umePWjomY5sVP/hH5vi5x90fRttGNq/7aKfE6q/pB6Qpp3izmFXui3T4nTc+kTpWI+5g8xmffbpj/AOzHufSK0/Ex9XgMbPp3oiP+WNd+kblkb/V5Zeq7+7eNv+WFd+khTH+VktNX/dXMMG79JHM5jazkGF+M3avyeff+kLqW7v8AVZdh7Pwmav6w8+vjRr7HVbYS5Tbn0U2Kav6w66s/4qZ1P3Kcbd5v/jt00/02KNC8Ts1rirEfrC1zT3xdv1UxHyiXqYTgHqjGzFeY5lhqYn03qqqv5w2jLfo65Xb2rzDOb1yrz0UUU8vXfduWV8HtF5XNNdOAi9cj/XcuVTv8t9m5YTKsswFNMYTBYWzt5Jot00z1iGbz0+tHU56fWjqc9PrR1Oen1o6nPT60dTnp9aOpz0+tHU56fWjqc9PrR1Oen1o6nPT60dTnp9aOpz0+tHU56fWjqc9PrR1Oen1o6nPT60dTnp9aOpz0+tHU56fWjqc9PrR1Oen1o6nPT60dTnp9aOpz0+tHU56fWjqc9PrR1Oen1o6nPT60dTnp9aOpz0+tHU56fWjqc9PrR1Oen1o6nPT60dTnp9aOpz0+tHU56fWjqc9PrR1Oen1o6nPT60dTnp9aOpz0+tHU56fWjqc9PrR1Oen1o6nPT60dTnp9aOpz0+tHU56fWjqc9PrR1Oen1o6nPT60dTnp9aOpz0+tHU56fWjqc9PrR1Oen1o6nPT60dTnp9aOpz0+tHU56fWjqc9PrR1Oen1o6nPT60dTnp9aOpz0+tHU56fWjqc9PrR1Oen1o6nPT60dTnp9aOpz0+tHU56fWjqc9PrR1YOLyrK8fRVTi8Fhbu/lmu3TVPWYadmvB7ReaTVVVgIs3J/127lUbfLfZpuZfR1yuvevL85vW6vNRXRTy9d92r4vgHqjBTNeX5lhaqY80Xqqap6Q8uvQvE7Kq5qw/wCsLm3ki1fqqiflMuac/wCKmS/dqpxtvb/5LdNX9d3ZRxp19gappxdym5MeaqxTT/SGfY+kLqW1t9dl2GvbeXeZp36Q9Cz9JHM4iIu5Bhe7zxdq7/5M6z9JCmZj67Jaaf8AtrmWbb+kblk7fWZZej07Rv8A8sm39IrT8zP1mAxsejaiJ/5ZFH0idKzH38HmMT7rdM//AGd1H0g9IVRvNnMKfdNunxO23x90fXvvGMp/7rdPifccetHzO3Pio980R+bu7c9G/vF7+GPzO3PRv7xe/hj83ZTxu0ZVTE/plce6Yj83Pbboz9+q6R+Z226M/fqukfmdtujP36rpH5nbboz9+q6R+Z226M/fqukfmdtujP36rpH5t4yjNcLneVYfMsFX9ZhsRTzW6/TG8x/wzgGt640v/jDSuJyaL8WPrqqJ55jfblqif+ESfZun8ap/hn8j7N0/jVP8M/kfZun8ap/hn8j7N0/jVP8ADP5Pr7N9H4zH8M/kfZvo/GY/hn8j7N9H4zH8M/k5j6N9G8b5z3e6mfyfX2b7H4xV0/sfZvsfjFXT+x9m+x+MVdP7H2b7H4xV0/sfZvsfjFXT+x9m+x+MVdP7H2b7H4xV0/s5j6ONmmd4zmqJ+H9nfR9Hybe3Jntcbf7f7Mq3wOxtn/L1Jdp+FMeFk08Hs4p8mq78fCinwuynhLntP7OsMVHwiI/+r77KdQ+2eN6x4Tsp1D7Z43rHhOynUPtnjeseE7KdQ+2eN6x4Tsp1D7Z43rHhOynUPtnjeseE7KdQ+2eN6x4Tsp1D7Z43rHhOynUPtnjeseE7KdQ+2eN6x4Tsp1D7Z43rHhOynUPtnjeseE7KdQ+2eN6x4Tsp1D7Z43rHhOynUPtnjeseE7KdQ+2eN6x4Tsp1D7Z43rHhOynUPtnjeseE7KdQ+2eN6x4Tsp1D7Z43rHhOynUPtnjeseE7KdQ+2eN6x4Tsp1D7Z43rHhOynUPtnjeseE7KdQ+2eN6x4Tsp1D7Z43rHhOynUPtnjeseE7KdQ+2eN6x4Tsp1D7Z43rHhOynUPtnjeseE7KdQ+2eN6x4Tsp1D7Z43rHhOynUPtnjeseE7KdQ+2eN6x4Tsp1D7Z43rHhOynUPtnjeseE7KdQ+2eN6x4Tsp1D7Z43rHhOynUPtnjeseE7KdQ+2eN6x4Tsp1D7Z43rHhOynUPtnjeseE7KdQ+2eN6x4Tsp1D7Z43rHhOynUPtnjeseE7KdQ+2eN6x4Tsp1D7Z43rHhOynUPtnjeseE7KdQ+2eN6x4Tsp1D7Z43rHhOynUPtnjeseE7KdQ+2eN6x4Tsp1D7Z43rHhOynUPtnjeseE7KdQ+2eN6x4Tsp1D7Z43rHhOynUPtnjeseE7KdQ+2eN6x4Tsp1D7Z43rHhOynUPtnjeseE7KdQ+2eN6x4Tsp1D7Z43rHhOynUPtnjeseE7KdQ+2eN6x4Tsp1D7Z43rHhOynUPtnjeseE7KdQ+2eN6x4Tsp1D7Z43rHhOynUPtnjeseE7KdQ+2eN6x4Tsp1D7Z43rHhOynUPtnjeseE7KdQ+2eN6x4Tsp1D7Z43rHhOynUPtnjeseE7KdQ+2eN6x4Tsp1D7Z43rHhOynUPtnjeseE7KdQ+2eN6x4Tsp1D7Z43rHhOynUPtnjeseE7KdQ+2eN6x4Tsp1D7Z43rHhOynUPtnjeseFx2U6h9s8Z1jwvmeEue1eXWGKn4xHhddXB7OKonfVd+d/TRT4WNc4HY29v9ZqS7O/8AtjwsWv6Pk3N+fPa53/2/2dE/Rxs1TvOc1TPw/s4+zfY/GKun9j7N9j8Yq6f2Ps32Pxirp/Y+zfY/GKun9j7N9j8Yq6f2Ps32Pxirp/Y+zfY/GKun9nzP0b6N/u5z3e+mfycfZvo/GY/hn8j7N9H4zH8M/kfZvo/GY/hn8nz9m6fxqn+GfyPs3T+NU/wz+R9m6fxqn+GfyPs3T+NU/wAM/kmXSeRf4a0tl+T/AFv1v6Jb5OeP9XfM/wDL2gAAAAAAAAAAAAAAAAAAAAAAAAAAAAAAAAAAAAAAAAAAAAAAAAAAAAAAAAAAAAAAAAAAAAAAAAAAAAAAAAAAAAAAAAAAAAAAAAAAAAAAAAAAAAAAAAAAAAAAAAAAAAAAAAAAAAAAAAAAAAAAAAAAAAAAAAAAAAAAAAAAAAAAAAAAAAAAAAAAAAAAAAAAAAAAAAAAAAAAAAAAAAAAAAAAAAAAAAAAAAAAAAAAAAAAAAAAAAAAAAAAAAAAAAAAAAAAAAAAAAAAAAAAAAAAAAAAAAAAAAAAAAAAAAAAAAAAAAAAAAAAAAAAAAAAAAAAAAAAAAAAAAAAAAAAAAAAAAAAAAAAAAAAAAAAAAAAAAAAAAAAAAAAAAAAAAAAAAAAAAAAAAAAAAAAAAAAAAAAAAAAAAAAAAAAAAAAAAAAAAAAAAAAAAAAAAAAAAAAAAAAAAAAAAAAAAAAAAAAAAAAAAAAAAAAAAAAAAAAAAf/2Q==;" vertex="1" parent="1">
          <mxGeometry x="440" y="272.48" width="103.45" height="57.52" as="geometry" />
        </mxCell>
        <mxCell id="5tPz83MsegSp8FZxeWKG-12" value="[Topo Features , SFC Features]" style="text;html=1;strokeColor=none;fillColor=none;align=center;verticalAlign=middle;whiteSpace=wrap;rounded=0;horizontal=0;fontStyle=1" vertex="1" parent="1">
          <mxGeometry x="90" y="482.5" width="40" height="195" as="geometry" />
        </mxCell>
        <mxCell id="5tPz83MsegSp8FZxeWKG-13" value="" style="shape=table;html=1;whiteSpace=wrap;startSize=0;container=1;collapsible=0;childLayout=tableLayout;rowLines=1;columnLines=1;horizontal=1;rounded=1;shadow=0;sketch=0;direction=north;arcSize=0;swimlaneFillColor=none;fillColor=#fff2cc;strokeColor=#d6b656;" vertex="1" parent="1">
          <mxGeometry x="130" y="460" width="43" height="240" as="geometry" />
        </mxCell>
        <mxCell id="5tPz83MsegSp8FZxeWKG-79" style="shape=partialRectangle;html=1;whiteSpace=wrap;collapsible=0;dropTarget=0;pointerEvents=0;fillColor=none;top=0;left=0;bottom=0;right=0;points=[[0,0.5],[1,0.5]];portConstraint=eastwest;" vertex="1" parent="5tPz83MsegSp8FZxeWKG-13">
          <mxGeometry width="43" height="30" as="geometry" />
        </mxCell>
        <mxCell id="5tPz83MsegSp8FZxeWKG-80" style="shape=partialRectangle;html=1;whiteSpace=wrap;connectable=0;fillColor=#60a917;top=0;left=0;bottom=0;right=0;overflow=hidden;strokeColor=#2D7600;fontColor=#ffffff;shadow=0;perimeterSpacing=0;perimeter=rectanglePerimeter;" vertex="1" parent="5tPz83MsegSp8FZxeWKG-79">
          <mxGeometry width="43" height="30" as="geometry" />
        </mxCell>
        <mxCell id="5tPz83MsegSp8FZxeWKG-77" style="shape=partialRectangle;html=1;whiteSpace=wrap;collapsible=0;dropTarget=0;pointerEvents=0;fillColor=none;top=0;left=0;bottom=0;right=0;points=[[0,0.5],[1,0.5]];portConstraint=eastwest;" vertex="1" parent="5tPz83MsegSp8FZxeWKG-13">
          <mxGeometry y="30" width="43" height="30" as="geometry" />
        </mxCell>
        <mxCell id="5tPz83MsegSp8FZxeWKG-78" style="shape=partialRectangle;html=1;whiteSpace=wrap;connectable=0;fillColor=#d80073;top=0;left=0;bottom=0;right=0;overflow=hidden;strokeColor=#A50040;fontColor=#ffffff;" vertex="1" parent="5tPz83MsegSp8FZxeWKG-77">
          <mxGeometry width="43" height="30" as="geometry" />
        </mxCell>
        <mxCell id="5tPz83MsegSp8FZxeWKG-75" style="shape=partialRectangle;html=1;whiteSpace=wrap;collapsible=0;dropTarget=0;pointerEvents=0;fillColor=none;top=0;left=0;bottom=0;right=0;points=[[0,0.5],[1,0.5]];portConstraint=eastwest;" vertex="1" parent="5tPz83MsegSp8FZxeWKG-13">
          <mxGeometry y="60" width="43" height="30" as="geometry" />
        </mxCell>
        <mxCell id="5tPz83MsegSp8FZxeWKG-76" style="shape=partialRectangle;html=1;whiteSpace=wrap;connectable=0;fillColor=#0050ef;top=0;left=0;bottom=0;right=0;overflow=hidden;strokeColor=#001DBC;fontColor=#ffffff;" vertex="1" parent="5tPz83MsegSp8FZxeWKG-75">
          <mxGeometry width="43" height="30" as="geometry" />
        </mxCell>
        <mxCell id="5tPz83MsegSp8FZxeWKG-73" style="shape=partialRectangle;html=1;whiteSpace=wrap;collapsible=0;dropTarget=0;pointerEvents=0;fillColor=none;top=0;left=0;bottom=0;right=0;points=[[0,0.5],[1,0.5]];portConstraint=eastwest;" vertex="1" parent="5tPz83MsegSp8FZxeWKG-13">
          <mxGeometry y="90" width="43" height="30" as="geometry" />
        </mxCell>
        <mxCell id="5tPz83MsegSp8FZxeWKG-74" style="shape=partialRectangle;html=1;whiteSpace=wrap;connectable=0;fillColor=#a20025;top=0;left=0;bottom=0;right=0;overflow=hidden;strokeColor=#6F0000;fontColor=#ffffff;" vertex="1" parent="5tPz83MsegSp8FZxeWKG-73">
          <mxGeometry width="43" height="30" as="geometry" />
        </mxCell>
        <mxCell id="5tPz83MsegSp8FZxeWKG-71" style="shape=partialRectangle;html=1;whiteSpace=wrap;collapsible=0;dropTarget=0;pointerEvents=0;fillColor=none;top=0;left=0;bottom=0;right=0;points=[[0,0.5],[1,0.5]];portConstraint=eastwest;" vertex="1" parent="5tPz83MsegSp8FZxeWKG-13">
          <mxGeometry y="120" width="43" height="30" as="geometry" />
        </mxCell>
        <mxCell id="5tPz83MsegSp8FZxeWKG-72" style="shape=partialRectangle;html=1;whiteSpace=wrap;connectable=0;fillColor=#fff2cc;top=0;left=0;bottom=0;right=0;overflow=hidden;gradientColor=#ffd966;strokeColor=#d6b656;" vertex="1" parent="5tPz83MsegSp8FZxeWKG-71">
          <mxGeometry width="43" height="30" as="geometry" />
        </mxCell>
        <mxCell id="5tPz83MsegSp8FZxeWKG-69" style="shape=partialRectangle;html=1;whiteSpace=wrap;collapsible=0;dropTarget=0;pointerEvents=0;fillColor=none;top=0;left=0;bottom=0;right=0;points=[[0,0.5],[1,0.5]];portConstraint=eastwest;" vertex="1" parent="5tPz83MsegSp8FZxeWKG-13">
          <mxGeometry y="150" width="43" height="30" as="geometry" />
        </mxCell>
        <mxCell id="5tPz83MsegSp8FZxeWKG-70" style="shape=partialRectangle;html=1;whiteSpace=wrap;connectable=0;top=0;left=0;bottom=0;right=0;overflow=hidden;fillColor=#eeeeee;strokeColor=#36393d;" vertex="1" parent="5tPz83MsegSp8FZxeWKG-69">
          <mxGeometry width="43" height="30" as="geometry" />
        </mxCell>
        <mxCell id="5tPz83MsegSp8FZxeWKG-56" style="shape=partialRectangle;html=1;whiteSpace=wrap;collapsible=0;dropTarget=0;pointerEvents=0;fillColor=none;top=0;left=0;bottom=0;right=0;points=[[0,0.5],[1,0.5]];portConstraint=eastwest;" vertex="1" parent="5tPz83MsegSp8FZxeWKG-13">
          <mxGeometry y="180" width="43" height="30" as="geometry" />
        </mxCell>
        <mxCell id="5tPz83MsegSp8FZxeWKG-67" style="shape=partialRectangle;html=1;whiteSpace=wrap;connectable=0;fillColor=#e6d0de;top=0;left=0;bottom=0;right=0;overflow=hidden;gradientColor=#d5739d;strokeColor=#996185;" vertex="1" parent="5tPz83MsegSp8FZxeWKG-56">
          <mxGeometry width="43" height="30" as="geometry" />
        </mxCell>
        <mxCell id="5tPz83MsegSp8FZxeWKG-47" style="shape=partialRectangle;html=1;whiteSpace=wrap;collapsible=0;dropTarget=0;pointerEvents=0;fillColor=none;top=0;left=0;bottom=0;right=0;points=[[0,0.5],[1,0.5]];portConstraint=eastwest;" vertex="1" parent="5tPz83MsegSp8FZxeWKG-13">
          <mxGeometry y="210" width="43" height="30" as="geometry" />
        </mxCell>
        <mxCell id="5tPz83MsegSp8FZxeWKG-68" value="" style="shape=partialRectangle;html=1;whiteSpace=wrap;connectable=0;fillColor=#cce5ff;top=0;left=0;bottom=0;right=0;overflow=hidden;strokeColor=#36393d;" vertex="1" parent="5tPz83MsegSp8FZxeWKG-47">
          <mxGeometry width="43" height="30" as="geometry" />
        </mxCell>
        <mxCell id="5tPz83MsegSp8FZxeWKG-81" value="Latent&lt;br&gt;Space" style="text;html=1;strokeColor=none;fillColor=none;align=center;verticalAlign=middle;whiteSpace=wrap;rounded=0;shadow=0;sketch=0;" vertex="1" parent="1">
          <mxGeometry x="131.5" y="430" width="40" height="20" as="geometry" />
        </mxCell>
        <mxCell id="5tPz83MsegSp8FZxeWKG-83" value="" style="rounded=1;whiteSpace=wrap;html=1;shadow=0;sketch=0;fillColor=#ffffff;gradientColor=#ffffff;verticalAlign=middle;dashed=1;" vertex="1" parent="1">
          <mxGeometry x="220" y="410" width="470" height="350" as="geometry" />
        </mxCell>
        <mxCell id="5tPz83MsegSp8FZxeWKG-92" value="" style="shape=image;verticalLabelPosition=bottom;labelBackgroundColor=#ffffff;verticalAlign=top;aspect=fixed;imageAspect=0;image=data:image/png,iVBORw0KGgoAAAANSUhEUgAAAJMAAAEBCAYAAAB8PJfpAAAd20lEQVR4Ae2dZ1fcSBOF9/9/f88Gp3X2OmNMMJkhR5ucbOIMQ/COzRobxmDXe67EHXqkCVJLk3BxTp0WQi0G9UP1Vam69Jvol16BmK7AbzGdR0+jV0B+KZj++3omtOThqcCWto4dG1s6Elr324zAXg4d5uxOZ9r5uTJT/Ao0PEwAotDg3+tKC+z3V0n5o3nHsb9e7wjsWku+3WrbEdjt9h2507Ej9zp35EHXjjzqdu2fnh35u33b6QeoAKB++a9Aw8ME7/G/JhcYQAAAMPi0p30pgT3vv7SXA7vyajCc3XmzLY97d+RRT9IBElABZP26vAJXAqa53ay0Tmbkj+ak3O1IhgYlCFiA6WlfUpqHdqVpIOVABc8Hr4ipU7+k8TUTPNNs+kxSxyJbn8/lycBhRaAyYQJQsBeJXfm7PelMp9Bbv/rXlfBMb3fOZG5XZGlfZP+byMT6V/m7I+1A9bA73HRWzEsVgolQPetPyc22pPzqIv1qwJQ8k/ldcYACVGsfXS/VN390oaeS8qQ3GlSlYDKnPkL1K+qpKwHTu1Q+TAAKtv4pH6pb7Ul5nrCDqhxM9FLUU7iDxBT8K+mpKw0Todo+cqGKItKDwmRCdb/rUk/9ClBdGZgITrF2IS2yeyHSqafC3PmFhYlQ/Uoi/ZeBiZAtH1xOfYQqiJ6yhYlQPelNXnmR/svBRKjee0T69ZbSeioqTICKeuqqivRfFiZCtWGIdAY9C4n0OGCilyJUEOlXKej5y8NEqHb+c6e/YkHPOGEyoTJFeqMHPRUmIz4FkZ7+mh/0pEivBEyEiiK90YOeCpMBE73USgGRjqwCPpsjBHG3jS7SFaYCMBGqD/9e3vkhMwHCGV4kbojM81FPIVWm0TITFKYSMBGqzc8iE5vfpOPdJ/nztZuZYAJQiW1C1UgiXWEKABOgejN7Kqsff8j2ETITDqoK1b3OVENkJihMIWAa2/ghS3sie99EJjfczIRqeapGEOkKU0iYOPWtHorjpfoW3MwEQPWkL1VRPYXp1BTp9ZY+rDBZwkSo1jP5UN1+k/plRbrCFBEmQrV15EKFzIRqTX31JtIVpphgAlRI0EP6cLVFOvRUPYh0hSlGmOilnPThk3yR/rC78noKUPEhci1y0hWmCsBEqJA+DC9VTZHOqY9QVTN9WGGqIEyECpkJJlTVFOnVTB9WmKoAE6Ha/q82It3MTKhk+nBdw4Q/nAZ3DfPWBrjTkZYnQx/l6XBG7vce5ux6e1qaJ45yK1Y4oLYtIuAIWtr2Zz+mD9dCpFd6jV/VYQIQEIfe+gC2tQFQA+Bux45jqA9AY20AQDWwfBoZgrhgIlRIH97IuHoK6cMIJ1RDpJtBz7hFetVhsq0NUKw+wKOuHXnan5Kn/bt5hvyjh907AhcP3QCvNbnhLtbkgIZp44aJv/v9v/l66kZr9YKecYv0msA0m4qvNkApmFBkApDhMcedjqTcfONOfTZQVQomQrVpiHQGPauV7hJXZkJNYMJybuYKFUuTLbZM27s/CEz0Wv/0unEYQsWBDNJWGiZ+BqQPV1tPIZxginTb9OGawDS55U43i3siS3vnMv7BvjZAGJgI1cPupNxoS0oYkV4tmAAV04cbLTOhNjBt52sXRIw3P50LawOUW3ZkeicbmDj14b+RUJUT6dWEiV4K6cOMT1GkVzszIYxIrwlM0xdVS3jR2JoLJEstO4oDJnopDA5FOsILxfRULWDidYEkIFRIH65m0BNV9oKmD9cVTLh4eFiKXKGgtZZsPRNhYusV6RxItrWEiZ8B6cOEqh5Fet3BxAsH3YBcodH3l3qKy47i9EyEiS1FuldP1QNMvDbJL7UR6eUyE+oWJl44iPQP/7p6qlBtgLg8E2Fia4r0rpljJwc8jgg4/66oLa5Lus7Sh+seJl705f38ZUestVQpmAAV9RSWHf3ZsitdcyeRI+n8e+Jqw6YPI3ZFw98HQ+QdBs9vGrQZDIFUGKZWGHQbDUFofjUMTLz45gJJiPSbrcUj4Axa0tvYtrjgdzvd8s+lRDo/Yy1ab/qwCQAHvlQLkU17MXggtK7pjMDGlo9ytrz9VWA9F7XSGxYmDBT0FKuYPOw7kN+bk06hUhMWPE6JCyac91FPSh73puR2RyoXSa8FNOV+J9KHEZ8COASAg5/6mBXaf1/PBRbla2LlyKmOx3M0nGcyLyZ0w/T2mQysHMutN+k8qCoB05M+9/lfMZFufrZabg+uuDBxkCvVXimYMGCJlTOZ2vkpS/vn0jnjLjuCp0JtgLg9E2GCp6KeChr0rCZcfYsKk5W4BUxjmz9lfEvkbVJk5fASquutSYEXMac/221McyZMPA+hiiMzIS7g+hWmy9LLYS6qCROAmtgSeZdyawO8GP1X/njt11MEIUxbDCaeA1BFzUwI83eXOlZhCpg+672IXpgAFKxz/lQmd37I8uG5POo/iAxVOZgIFfWUTWaC92+z/V5hihkmRKwTaz9kYhsi/VwGV786Ih2e6kG3P5mOMBRrg8LE/mbQM8704SCAKUwVgml0UwQ2tSOyeHAuHbOuSL/Wkgqlp8LCBKiop/CwNK70YYXJuDdFxLRY1kCQC+U9ptg0R89EmNhOJ8WZ+gAV9VQQkW4DE70UoYJIr0bQUz1ThT0TYUI7BpG+60IVVE9FgcmEyhTp3n+MuL5XmKoIE8GCnprfFxlYudRTWA7EwTfbOGDi+SjSvZkJCpMxhQXZrPU0R5DMdnJHZGHP1VOIpBcS6XHCRKhMkY7MBIUpCEHGMfUIE8GCSF86vBTpN9svRXolYAJU1FPITIhLpOs0V4NpjhCZ7dimSCGRXimY6KUIVRwiXWGqE5gIFgKfM2lDpON5XxE9RSDiaKGnomYmKEx1BhOhgkhfOBDpWzp2Uk+gp+52hg96hgUtikhXmOoUJkI1tP5D5i9EOnKFCon0sMCUO55TX9jMBIWpzmHqX/shQ+s/ZcoIegIqU6SXgwPehoZHOjB4ORrCEjScF4ZI/Z8tSfn9lZsqi6Bnubs+halBYIKngkh/m3L11KvxjOOlzMEHADB4r1KpsubPbrSnhfag90Bgz4czjrVOHQkM+1CAQ2G6CA/Uc2iAU1qhlp7J/BlE+uyeyNCam4zmHXwA0L/w1bGx91mhzWyfC2z1QEJZ+/SRwmSEmZyc4Vo+mzNhCLNdCCb275x3YQoLR9jjFSaTJJErCVP7O4UJw2y1oIClAdF6ywOiTCCKHdC8FeKut+5K09insvN+OV3An4fNGqA3CduW8kztMwpTHkzFygNC46BEIO4mYIjQwhD+hyFXh3ajdcdJ5L/dviOwOx07cq/TLQ34qHtH/ulx999oDVfOhuAUahUmf7pzze/mAI0TP2l2IeDgAwDY076UY8/7U0JDacBi5QHNegDm9r2ObQewuB5yKkx1CtPExjdpmcwIy9mYEMS1DZgedF2WB0Q5mygPORWmuoUpKyiAvvHpXB4PHFYEKhMmBvkY6bV5yKkw1SlMw2tZRxijRhKWGY+uXZazedi9K3F4p0IwESpEh2+9Cbf8WmGqU5hG3rswUeg65Ww+nkvPnJuEj+nvSW80qErBRKiQ7sHnUeVWdihMdQrT6Id8mAjVyqFbI4lQsZyNjacKAhOg4tRHqIplIipMDQYToUIB9PXMeSSRHhQmeilCBT1VKBNRYWpQmAhVFJEeFiYTqnud/sLwClODwwSoINI/fDzPqzkZRKTbwkSomDTG5dcK0xWAiV4KNbxRc5J6qpxIjwoToWLQ86/WXXk+euTUF2CdAbTFFmGGfYzC4/Vxiuchq4gUrc+ECHgxAU5wSrWorUioAFQxkR4XTIAKeupuZ1LweOZaW1q6Fk5zUClMSf/ox7ynYjARNBRAh0h/nCgc9IwTJgCF0oCwexdvb7rbfSiDa2fqmZquAEyECiJ9NnkqLLfMGt6VgAlFuGBuzcmkk7H4oD8j3YtZp2gFp6oorU5zfrdWcc9EmNCikClEOvQUofq7DVkEhZdgUw+FaQEQYWL7qGfXmfqut6UdPRUFIvZVmGoME8HyinTUksZdWRhoih1bCCZAhSi686KdCz0FkU4wbFqFqU5gIlQQ6eMbJ9I8+clJtsdKjKhQlYLpca879UFPUaSjopzC5AfDZk9VpzlCZLZdC1kZWf8ui3vnghreWMFRrPJIMW9k7i8HE6c+HEeR/mggI4nVs1BQqWfy41YXMHUvfncGEitlE8tfcytlbaAKCpMJ1e0OV6Rj6gsKlcJU5zBhukGAcS59Lu3vjnJQhak5GRYmQgWRjhceIz4VRE8pTA0AE/ULVsrOp8/lzTs33QWLGoPoKVuYCBXuLKmnSkGlMDUQTIQK5QFReOvNTLCak1FhAlQ4B/SUszCiLe2UfebnYaswNSBMHLy5PZHF/fIiPQ6Y6KUIFdJdvCJdYWpgmAhVOZEeJ0wmVLfaU04knVOfwnQFYAJUqJFEke4sxzIKwxMmCGrafae6SNIpmnWnI+U8dMaDZ9rNtpTAcgUmmrEesHiRiTvdh6IwXRGY6KW8It2sIlJqGxmatLvdBwJ7Mphx7NXEkdA6Z74KLLGczRl+pjD5QcKeuoozEZKwLUR601jGmYbapr9IYvlUBlayjk1snAsM309s/nBeyoMX89iawlQYpCsDE+B7PJhx6hUBnJnUT5lNSZ4pTFcoBcV8hGJu43EKI+BhPZJ5vMLkT9flda6LWgNRMi35h5Rr44Lp6ZB6pmLXWmG6ePuS6X1KbStM6plEPVO40oNmdbmGqRwXdUFBMZfr3a8wKUyxVXpTmBQmhemiDnghHadlCN1YVK6mpU5zhQObGrT8BYKWejend3N6NxeykLzezZV4dYUKcBXgKsBVgPvE05XIGsAdlWom1UyqmVQzFf8v8Ea4y32vmkk1k2om1UyqmWwzLNlPg5Y+hnI7VICHTOFVmHLs+DYUJoXJB4XtDoVJYbJlx9dPYVKYfFDY7lCYFCZbdnz9FCaFyQeF7Q6FSWGyZcfXT2FSmHxQ2O5QmBQmW3Z8/RQmhckHhe0OhUlhsmXH109hUph8UNjuUJgUJlt2fP0UJoXJB4XtDoVJYbJlx9dPYVKYfFDY7lCYFCZbdnz9FCaFyQeF7Q6FSWGyZcfXT2FSmHxQ2O5QmBQmW3Z8/RQmhckHhe0OhUlhsmXH109hUph8UNjuUJgUJlt2fP0UJoXJB4XtDoVJYbJlx9dPYVKYfFDY7lCYFCZbdnz9FCaFyQeF7Q6FSWGyZcfXT2FSmHxQ2O5QmBQmW3Z8/RQmhckHhe0OhUlhsmXH109hUph8UNjuUJgUJlt2fP0UJoXJB4XtDoVJYbJlx9dPYVKYfFDY7lCYFCZbdnz9FCaFyQeF7Q6FSWGyZcfXT2FSmHxQ2O5QmBQmW3Z8/RQmhckHhe0OhUlhsmXH109hUph8UNjuUJgUJlt2fP0UJoXJB4XtDoVJYbJlx9dPYVKYfFDY7lCYFCZbdnz9SsI0vJaN7ZXz73Z+Cm1y64fAxtbPpWPuVLoXv8vopkSyp0MZedB7IBMb5zKT+imzKcmzgZWsTGz+EL4F3LbVFz77GMrtKAnT5FbWAcAcfAAwtHaWs4HVM4H1Ln3PWddCVmBvZk9zBmgKWSf2z2eld/lMYToQWQ1h7dNHcr/3sOw/fP/iV/lfUzI36JXaKAnTtbZd6Zj9Iv0rlyBg8B2bP5XuhWzOehay4rPFU+lZPJXepaxjfUtZ8Vr3AjxTVjrns9IxZw+VeiYpClXNYfrv65mMLR05RD8b+iiDqycytOaHwQtH2O8BU89i1rHueUIbHiqFqY5hoiskVNfbduX1ZEYw9Q2sxgeVCROhwhTpTolZGXz/M9D0pzA1AEwmVC+HDgVQvZrIyPhmVhLL0aEqBJMJFXRXz9J3GV4vDZXC1EAwEaqlrWO505l2oGp/dyRj69GAKgUToepccDVVKZGuMDUgTICKUx/uEOCpeheOZeSDHVRBYAJU5US6wtSgMNFLmVA9tRTpQWGilzJFemLtR05PKUwNDpMJVffbjOOlmifCifSwMBEqr0hXmK4ITCZUXpHeX0ak28JkQgWR/ijxUSPgu4WBqnmciYDYtHki/e2RjJYQ6VFhop562H8ot97sSdv0kT5O8UDV0DABQFNPUaQPFxDpccAEoOCZrrWm5Gn/njxOHErnzBd9NncBVcPDRI9mQuWI9JX8SHqcMN1sS0nL6IG8Ht6XJ/1pB6rE0okDlT7oreGzOcIQVwuofCJ9Bc/2Lh+nUAfZtPBMgKl1dF/axg6kdexAXg3tyaNe11N1zX7TrIG4BrPIeYo+6C1yfOTdgMoU6SMf3AfBNgCZfbwwAShC1TS4J4/7D6R5/JNMbJ5HSkPRFJTiCFQdJnwUAGWKdIhm6CkTjrDbxWAiVM3D+46eejJwKB0zX6yBUpjqDCZ+HEB1pyPtZCZApPfMH8vgmh1U5WBqGdmXVuipkYOcnrKBSmHi6Pnbmngm82NgysNU1zxxJDfa8RD5kySWTySxGg6qoDA5U9+oq6co0ofXvgf2VAqTOXr523UB0/TOmZPYNblx5mQOMjNhbDMrCHoGmfLCwMSpD56KIv3FcCaQnlKY8gEyv6srmOYu4iIDy6dyvd3NTGiayDhBT2RrloLKBiYTqhcDe0I9VUqkK0wmPvnbdQkToIKXwtRHqLrnv5QU6VFgIlQtIwdlRbrClA+Q+V3dwkQvRaiQ7nKv90ASqycFRXocMBEq3PlRT3lFusJk4pO/XfcweaG60bYrzZMZn0h/0J8ftCQYbHk3x+/LtdRThIoiXWHKB8j8rmFgMqHC8p6cSN/ISt9yVh56IuBeWMLCxP6ECpH0lonP8mwoI3e6D6V/7YcMFUklbp9xlxaFWbZkc2zDLHUyiavkNkIDvJsjMEHarpnjnJ5qGs/IP4PhPBOmMtqLgX2hPe7bE9iD7nTObnfsyt9vUvLn65T8/iqpMBUBouE8kwka9RREOjQVBvt+d1ow+Hc6duVGWypnfzanBIbjytm1trTQ4IVgjwYyjj0fPZLO+VP1TAWAamiYCJYJ1e3OA2fw/xmEt8rIi9Ejxx70Z+TJ0GdpmT52DEDAEqtnjoVdnq7TnJ+muoBpcssNWhKOKG1i5UzGNn/K+JbkGbIxzZzxsPB4j1eY6hSmqe1wMLEABlrWQWAhDAQ2+5bPcoblUbD22dPI9QxMoBSmOoVpfOM0lkIYZh0ETGEsoME26IJOE5pi2wpTHcKEhDk84MXS84mteAphlHrsYi7oLLdKuBhI2K8w1SFM+EhMmANUrVMZGUfsqEDFlCD7gmRuckEnKq+UWiWsMPmBKbWn5gKcHw5AoeoKlp4DqsGVY6uqK0FgoucyF3SGhUo9E0fusq0bmPiRCBViQc9HPsrI+xMnDSWIV8IxYWAiVN4FnaU8En+mMHHELtu6g4kfjVDBS7VNZ2Rg5STQ1GcDkwlVUJGuMHGkLtu6hYkf0dRTgGpqu7SeigIToTJFOj2Rt1WYOEKXbd3DxI/KBQjwVC2TmaKlfOKACVBRpBcrjagwcWQu24aBCR+ZUx/0FKBKrBzLoKeKXVww0UuZIt2MoCtMlxBxq6Fg4oc2oXox8lGG1i71VNwwESqvSFeYOBqXbUPCxI9PqCjS3yXt7uYITJAWUEGkQ1cNfihcGlHzmdwR+o0D1UitKdJbLoKeQcCwPSanp4oEPRWmBoaJ4EOk//Ha1VOds0cy9L70ihZbmNDPqYG+eFkV2Ax6KkxXACb8Cc8SB/Jq/FNulXDf4rGT1hsFnEJ9ARP3e/WUwnRFYEIa8LvUWW6pFPQUIumJlZPc4BOCKK0JE89DPdU08Z8Ds01ed5g+mgPOOalCLWFigh2yMJ8Ou5kJrRdBTw5+lLYQTDzfy3H3zQ49c19kLnke6n0oClOFwLA5rRcmEyqsanGCnlPuKmEOvk1bCqZXFzA969+TJ4lDAVRhIAl6rHomG0JC9CFM8566joDKzBUHVAPLx86rOyoFU/s4qq64CzorAZXCFAIMm0NLwWR6KSw9RyT92UXQMyxQQTwTYIJhDR4KZDzuSzueamrjeyyeSmGyISREH8D09qKqCuEp1tJTwUtBT/UvBxfpYWDyQoUFne1TnyPrKYUpBBg2hwKmxf0zmd4+d960GeRFi23vvsnNjn1HTzHTE7AEsUIejZqJEHlbeCpUXXk6EE1PKUw2hIToA5iwdByrfCc28UYod32cCYbvJYtOzOhUno98lr9adx2oXk9kZBhBz0IvZbzYl3fOi3fmAa5yMBEuLD2PItIVphBg2BzK53VO+m/brgytHss0cqDKvCmBmZyds9/k8UDG0VOY/vqWj51XoYWBKihMhMoU6SOrJ4H1lMJkQ4hFH0LlpP8Of5TJzROZ2CydWEeg0JpQPR/+KAOrJyW9FGCjp2q6CA0QliAtRfo/vcFFusJkAUaULoSK8aX5dFZGC7wpwQTJ3CZUjkifyjherpSXws8IE2qSBwHJPIZQPR88KCvSFaYoZETom5dZMJmR2d1sqNUvgOrvzkuRjpc2FoOK01zL6L7AbKBy9FSitEhXmCIAEUdXb/rvu52s4FUYpjcqtf1y9FKkO5kJqArsEemmZwJIqA3l1ocK76nw+g4UHCsU9FSY4iAi4jk49TnpvxcifWorOFCc+tAfd469yExAAdcLqLwwASgTKkxl5tRWbptTH6Fi0FNhighCnN1NqCCyJzZOQq0mJlTQU+iP+uUACqUKARohMltn6rvwVLZQMej5auyTU+q6WFCW+6/MW53iHPxKnQtQseYBMjUh0sO8cxhQ3e/7mAt6tkwWh4lgefUUwgO0l4P7AnuCB8X9+VXsUMTstlHFDg+vCU2xVmGqFDklzusT6anwIh1BT3gl2P2utNx+g8G3r2LnlK5GTfT2tOOFAA9SamiomV4MIu5XmEoMeqV/ZIr0rrkjebuTlURAkc6pD3d+psFzwRAQpUHMw15PHcvL8S/SNHEsvYunTnYDQYijVZgqTUyZ85t6CuWiB1ePZTKESC91R1jsZwh6dszh8U9WJrd+lvU4QUFTmMoMdrV+TKhw1waRPb5xImMRSv4UA8ncD6iwnKp36bu8S0aHSmGqFi0Bf0+eSJ/MyNxuVkbeBw8nmLAE3UZOOQyZD1GgUpgCDnK1D/OK9JlU1rdEPSgsQY7DC4i65i+hCjq1mccpTNWmJMTv49THwmTMTMDrzIIAYnNMz8JpTk/BU5mwlNtWmEIMbq0OJVQIAzy7yEyYDJGZYAOVjUhXmGpFiMXvJVTMLBhfPyla8scGoEJ9KNITK+VFusJkMai17uLVUxDpyNYsBENc+0yRXmy6U5hqTUaE328GPVGYDNVZBjx1pOKCCeehSEd8qpCeUpgiDGY9dOXU500froVIV5jqgYgYPgOhgkhH0DNs+rCNB/OKdIUphoGsp1MQKoh0ZiaMrldWT1Gkt067hTQqfT0aunJcpS9OJc7vFelh04dtPBXzq2bWv1TiT8qdU2HKXYrqbhQU6QEzE8IC9foiv+p5Yk+wrrBSUClM1WUo77dx6oOeQmYCIulh0oeDQkWYeqYOpH1sX572px2o1tMneZ8n6jcKU9QrGEN/Eyqb9OFyUJkwAaiuyQNpGdkTrNGDp9r/9D2Gv0JEYYrlMsZzEkKVJ9JDrPErBpUXJgBlQoWc8uGFz3J8ch7pD1GYIl2+ynT2ifSQ6cNeqIrBRKg6Jw6kaXBPmoaj6SmFqTI8xHJWU6SHTR82gSoHkwlVFJGuMMUy7JU7Cac+U6SHTR8OCpM59VGkh9FTClPlOIj1zIQKeorpw0HfGBoGJnopinToqc6pTCA9pTDFOuSVPxmgyq3xY/pwGZFuA5MJFUooUk+VEukKU+XHvyK/wSvSS6UPR4GJUEGkQ08RqkJ/lMJU6Ko0yD4AZYr0gZUvzho/b2ZCHDARKjPo6Y2kK0wNAk6pj0k9BZF+r2ffyUww04fjhAlQUU95RbrCVGqUGuxnhMqbPszaB/QucbWEikHPvplPTkSdl60hXxHGD6+tewW8eqpj5uL1GxeR7yAwvRnfF9rr4X2BoUIwDI9hTLvTkZJrLSn5/VVSYbqqEFJPYfqDEYB7nbsCu9Wecuyv1ymB8bhSLTJHaXiuR8MdJix5eJq7nOqZcpfiamxw6uOgs+Xgjy0dCQ3wwQAEDf1hNl8Kk81V0z4Fr4DCVPCy6E6bK/B/LogskqkeatcAAAAASUVORK5CYII=;" vertex="1" parent="1">
          <mxGeometry x="230" y="495" width="80.08" height="140" as="geometry" />
        </mxCell>
        <mxCell id="5tPz83MsegSp8FZxeWKG-93" value="" style="edgeStyle=orthogonalEdgeStyle;rounded=0;orthogonalLoop=1;jettySize=auto;html=1;entryX=0;entryY=0.5;entryDx=0;entryDy=0;shape=flexArrow;" edge="1" parent="1" source="5tPz83MsegSp8FZxeWKG-73" target="5tPz83MsegSp8FZxeWKG-83">
          <mxGeometry relative="1" as="geometry">
            <mxPoint x="207" y="590" as="targetPoint" />
          </mxGeometry>
        </mxCell>
        <mxCell id="5tPz83MsegSp8FZxeWKG-94" value="" style="rounded=1;whiteSpace=wrap;html=1;shadow=0;sketch=0;fillColor=#ffffff;gradientColor=#ffffff;verticalAlign=middle;" vertex="1" parent="1">
          <mxGeometry x="323.45" y="440" width="220" height="130" as="geometry" />
        </mxCell>
        <mxCell id="5tPz83MsegSp8FZxeWKG-120" value="" style="shape=crossbar;whiteSpace=wrap;html=1;rounded=1;direction=south;shadow=0;sketch=0;gradientColor=#ffffff;verticalAlign=middle;fillColor=#FFCCCC;" vertex="1" parent="1">
          <mxGeometry x="343.45" y="449" width="20" height="80" as="geometry" />
        </mxCell>
        <mxCell id="5tPz83MsegSp8FZxeWKG-166" value="N" style="text;html=1;align=center;verticalAlign=middle;whiteSpace=wrap;rounded=0;shadow=0;sketch=0;" vertex="1" parent="1">
          <mxGeometry x="323.45" y="479.12" width="40" height="20" as="geometry" />
        </mxCell>
        <mxCell id="5tPz83MsegSp8FZxeWKG-167" value="" style="shape=crossbar;whiteSpace=wrap;html=1;rounded=1;shadow=0;sketch=0;fillColor=#ffffff;gradientColor=#ffffff;verticalAlign=middle;" vertex="1" parent="1">
          <mxGeometry x="373.45" y="540" width="148" height="20" as="geometry" />
        </mxCell>
        <mxCell id="5tPz83MsegSp8FZxeWKG-168" value="T" style="text;html=1;strokeColor=none;fillColor=none;align=center;verticalAlign=middle;whiteSpace=wrap;rounded=0;shadow=0;sketch=0;" vertex="1" parent="1">
          <mxGeometry x="427.45" y="550" width="40" height="20" as="geometry" />
        </mxCell>
        <mxCell id="5tPz83MsegSp8FZxeWKG-208" value="" style="shape=image;verticalLabelPosition=bottom;labelBackgroundColor=#ffffff;verticalAlign=top;aspect=fixed;imageAspect=0;image=data:image/png,iVBORw0KGgoAAAANSUhEUgAAAnUAAAFVCAMAAAHJatlbAAAAAXNSR0IArs4c6QAAAARnQU1BAACxjwv8YQUAAAEFUExURQAAAAAAAAAAAAAAAAAAAAAAAAAAAAAAAAAAAAAAAAAAAAAAAAAAAAAAAAEBAQICAgMDAwQEBAUFBQYGBgcHBwgICAkJCQoKCgsKCgsLCwwMDA8PDxAQEBERERMTExQUFBcXFxgYGBoYGBoZGRwcHB0dHR4eHh8fHyAgICEfHyEhISMjIyUlJSkpKSoqKisrKy8sLDAwMDMzMzs4OD09PUBAQEFBQUZGRkhHR0tKSktLS09PT1NTU2ZmZm1tbXR0dHV1dXp6ent7e39/f4GBgYqKipSUlJeVlZ6cnJ6enqenp66urq+vr7a2tru7u8PDw8fFxcfHx9DOztDQ0NTU1N3d3efn5wZvei0AAAANdFJOUwALFUVZd6PN0tfc3d4BYfbaAAAACXBIWXMAABcRAAAXEQHKJvM/AAALx0lEQVR4Xu3d+3scBRXG8ZVLAe2QQLXIpSKKQLEqclO0tvaCVi23Yvz//xR3z3k3zTIzac97mnm2eb6fH5h9pnOmh7dv0iTdZFerZ5+o1YX/nXBXx3Bfx3D02Uk6mT45ifsd437HdDLpTukpu99wkk6GIx0fhfs9pJOB+03b//t9c8IN3SnpZPhax0f5wX46ht23Xx2TfsOkc4n7HeN+x3SnpHPpKbvfgxPu6WQ4unOSTk7gfse43zGdnLD/9zs64fa3J/xTJ8N/b52kkxOe9KdbK+35KPrANOlc0gemifvN0J2SziXdKXG/GbpT0rmkO6Uzvp/+Bkw6V8L9HtK5Eu73kM6VPPn76fOkpDslnSv5wX6PSb9h0rnE/R6H7pR0LnG/x6E7JZ1LZ3w/fWSadC7pA9OkcxO430M6l3SnpHMTuN9DOpd0p6RzE578/fR5UtJnWknnkj7RSjo3YbX7+eCOnS+e7Nj5SsqO3S/z79AVE/Sx6ATW29IVE7TLBNbb0hUTtMsE1tvSFRO0ywTW29IVE7TLhP1f76s5f9Nx7Esdx/7z8SxdMeGjWaemp486J+iKsd1/K2hjvQ7W62C9DtbreJrX03HslL9zdZyg/7MJumAC621plwm6YALrbWmXCbpgAuttaZcJumAC621plwm6YML+r/f9nJs6jv1Lx7HvdJygXSboggmnpqevQ47tPBNkx+7TQnboihLW29IVJay3pStKWG9LV5Sw3pauKNn79facnt1X8pyOY8/rOGb9ymr+w5LrOo5d03Fs0Bdqx+Y/LBn0hdqxge0C2yW222C7xHaJ7TbYLrFdYrsNtktsl5bbbv6pFZ/rOPYbHccGPcNibNAVY4OeYTF2Wnb6KuWEU7LTccz6FbYLbJfYboPtEtsltttgu8R2ie022C6xXVpuuxv61tkxrTLhfV0xNv9du9avnJKd9RmjjmP6H5uiK8bYLmmTKbpijO2SNpmiK8bYLmmTKbpijO2SNpmiK8bYLmmTKbpijO2SNpmiK8bYLmmTKbpijO2SNpmiK8bYLmmTKbpibN+3m3/u+F90HPtQx7H5Z4hrkym6Yuy07L7QcxXHTslOT1UcOyUhHcfYLrFdYrsNtktsl9hug+0S2yW222C7xHZpue1u68fSjf1ZP+Ru7Le6YmzQj78bG3TF2Cm/ou892lcvvPOHsnfe3Pz39yUf/FQPCn43vFE3aLhi+Hnd+g/2wvybxay7818mmHV//k1p1tH800jnzb+RzZt/6uk8sktkl8gukF0iu0R2a2SXyC6RXSC7RHaJ7NbILpFdIrtAdonsEtmtkV0iu0R2gezSeczuxSvvlV3R0/pKXtVwwbuDHlQsNmP2TnGUWL3Tg4rFZsgukF0iu0B2QnaB7NbILpFdIrtAdkJ2gezWyC6RXSK7QHZCdoHs1sgukV0iu0B2cg6ze+nyW2WXL+lBwRuHelAx6FihP6oazVa4vVvs3xj1oEJp1Gi2guxEsxVkJ5qtIDvRbAXZiWYryE40W0F2otkKshPNVpCdaLaC7ESzFWQnmq0gO9FsBdmJZivITjRbQXai2QqyE81WkJ1otoLsRLMVZCearSA70WzFOrufHLxSdvDyYdnByxouOBwO6gYNV1gzZu/mf+jhrHtW7/RjESusDulYQXaJ7BLZBbJLZJfIbo3sEtklsgtkl8gukd0a2SWyS2QXyC6RXSK7NbJLZJfILpBdOo/ZXdS/FKFqtXr+2bp9nnlOxzO3Wg3xwk81OaOXWHpM1qs3va6Xfio4+EDDBW9e0ks/FVx6YbXYOwcdK4ZP9VMoC167r+GC61f1UygLrl4gujWiC0QXiC4QXSA6ohOiC0QXiC4QXSA6ohOiC0QXiC4QXSA6ohOiC0QXiC4QXSA6ohOiC0QXiC4QXSA6ohOiC0QXiC4QXSA6ohOiC0QXiC4QXSA6ohOiC0QXiC6cx+i+qlts5o8fl/3sSw0XfP6rj8p+vY7uvTp9l1SNZiuGd/Wg4NVf6kHB61f0oODKi94brEOzFcORHhRcc95gne/PNN/XOTRbQXRJsxVElzRbQXRJsxVElzRbQXRJsxVElzRbQXRJsxVElzRbQXRJsxVElzRbQXRJsxVElzRbQXRJsxVElzRbQXRJsxVElzRbQXRJsxVElzRbQXRJsxVElzRbQXRJsxVElzRbQXRJsxVElzRbQXRJsxVElzRbQXRJsxVElzRbQXRJsxVElzRbQXRJsxVElzRbQXRJsxVElzRbQXRJsxVElzRbQXRJsxVElzRbse/RfVOnMGo0WzF8rQcF7/9DDwr+dEMPCm6so3urbp9nDvUnVXJZwwWXX/LeYHWsWOwNVmmULPi+TscKogtER3RbRLdBdIHoAtEFoiO6LaLbILpAdIHoAtER3RbRbRBdILpAdIHoiG6L6DaILhBdILpAdES3RXQbRBeILhBdIDqi2yK6DaILRBeILhAd0W0R3QbRBaILRBeIjui2iG5jyei+r1ts5js9KPhQaZTc1HDBzXV0r9QNh3XW73NQNxxquODlAz0oOPix9wb7oM76fW7dKXt7z78zUXFUEF0gOqITogtEF4guEF0gOqITogtEF4guEF0gOqITogtEF4guEF0gOqITogtEF4guEF0gOqITogtEF4guEF0gOqITogtEF4guEF0gOqITogtEF4guEF0gOqITogtLRndUN3xbZ/0+f79V9ot/a7jgr7f1oOD2Ojp4Lq5gu6gQgYWs314vON8Marg7XNejs3V/uKZHZ+toGD79bAmvDcbHDIbrw9VPlnB1uEDrXLTOROsaaJ2J1jXQOhOta6B1JlrXQOtMtK6B1ploXQOtM9G6BlpnonUNtM5E6xponYnWNdA6E61roHUmWtdA60y0roHWmWhdA60z0boGWmeidQ20zkTrGmididY10DoTrWugdSZa10DrTLSugdaZaF0DrTPRugZaZ6J1DbTOROsaaJ2J1jXQOhOta6B1JlrXQOtMtK6B1ploXQOtM9G6BlpnonUNtM5E6xponYnWNdA6E61roHUmWtdA60y0roHWmWhdA60z0boGWmeK1vHaOljYoq+ts5TF3tcd6eHZurbY+7qlirDo37BLoXUWWtdC6yy0roXWWWhdC62z0LoWWmehdS20zkLrWmidhda10DoLrWuhdRZa10LrLLSuhdZZaF0LrbPQuhZaZ6F1LbTOQutaaJ2F1rXQOguta6F1FlrXQusstK6F1lloXQuts9C6FlpnoXUttM5C61ponYXWtdA6C61roXUWWtdC6yy0roXWWWhdC62z0LoWWmehdS20zkLrWmidhda10DoLrWuhdRZa10LrLLSuhdZZaF0LrbPQuhZaZ6F1LbTOQutaaJ2F1rXQOsuireO1dbCwRV9b59y9jthS7+uWci7/hqV1FlrXQOtMtK6B1ploXQOtM9G6BlpnonUNtM5E6xponYnWNdA6E61roHUmWtdA60y0roHWmWhdA60z0boGWmeidQ20zkTrGmididY10DoTrWugdSZa10DrTLSugdaZaF0DrTPRugZaZ6J1DbTOROsaaJ2J1jXQOhOta6B1JlrXQOtMtK6B1ploXQOtM9G6BlpnonUNtM5E6xponYnWNdA6E61roHUmWtdA60y0roHWmWhdA60z0boGWmeidQ20zkTrGmididY10DrTuWwdr62DhS362jpfPFjCveXe1926s4S3efU6H60z0boGWmeidQ20zkTrGmididY10DoTrWugdSZa10DrTLSugdaZaF0DrTPRugZaZ6J1DbTOROsaaJ2J1jXQOhOta6B1JlrXQOtMtK6B1ploXQOtM9G6BlpnonUNtM5E6xponYnWNdA6E61roHUmWtdA60y0roHWmWhdA60z0boGWmeidQ20zkTrGmididY10DoTrWugdSZa10DrTLSugdaZaF0DrTPRugZaZ6J1DbTOROsaaJ2J1jXQOhOta6B1JlrXQOtMtK6B1pnOZet4bR0s7OJqtXrmR8s4d78PwXmeWa3+D+Uiycs2Cn36AAAAAElFTkSuQmCC;" vertex="1" parent="1">
          <mxGeometry x="373.45" y="449" width="148" height="80.23" as="geometry" />
        </mxCell>
        <mxCell id="5tPz83MsegSp8FZxeWKG-210" value="&lt;b&gt;Nodes Infomation Matrix&lt;/b&gt;" style="text;html=1;strokeColor=none;fillColor=none;align=center;verticalAlign=middle;whiteSpace=wrap;rounded=0;shadow=0;sketch=0;" vertex="1" parent="1">
          <mxGeometry x="361.95" y="420" width="143" height="20" as="geometry" />
        </mxCell>
        <mxCell id="5tPz83MsegSp8FZxeWKG-212" value="" style="rounded=1;whiteSpace=wrap;html=1;shadow=0;sketch=0;fillColor=#ffffff;gradientColor=#ffffff;verticalAlign=middle;" vertex="1" parent="1">
          <mxGeometry x="350.93" y="610" width="166.55" height="130" as="geometry" />
        </mxCell>
        <mxCell id="5tPz83MsegSp8FZxeWKG-213" value="" style="shape=crossbar;whiteSpace=wrap;html=1;rounded=1;direction=south;shadow=0;sketch=0;gradientColor=#ffffff;verticalAlign=middle;fillColor=#FFCCCC;" vertex="1" parent="1">
          <mxGeometry x="370.93" y="619" width="20" height="80" as="geometry" />
        </mxCell>
        <mxCell id="5tPz83MsegSp8FZxeWKG-214" value="N" style="text;html=1;strokeColor=none;fillColor=none;align=center;verticalAlign=middle;whiteSpace=wrap;rounded=0;shadow=0;sketch=0;" vertex="1" parent="1">
          <mxGeometry x="430.31" y="720" width="40" height="20" as="geometry" />
        </mxCell>
        <mxCell id="5tPz83MsegSp8FZxeWKG-215" value="N" style="text;html=1;align=center;verticalAlign=middle;whiteSpace=wrap;rounded=0;shadow=0;sketch=0;" vertex="1" parent="1">
          <mxGeometry x="349.43" y="649" width="40" height="20" as="geometry" />
        </mxCell>
        <mxCell id="5tPz83MsegSp8FZxeWKG-216" value="" style="shape=crossbar;whiteSpace=wrap;html=1;rounded=1;shadow=0;sketch=0;fillColor=#ffffff;gradientColor=#ffffff;verticalAlign=middle;" vertex="1" parent="1">
          <mxGeometry x="401.04" y="710" width="96.44" height="20" as="geometry" />
        </mxCell>
        <mxCell id="5tPz83MsegSp8FZxeWKG-218" value="" style="shape=image;verticalLabelPosition=bottom;labelBackgroundColor=#ffffff;verticalAlign=top;aspect=fixed;imageAspect=0;image=data:image/png,iVBORw0KGgoAAAANSUhEUgAAAaUAAAFVCAMAAAEPmTATAAAAAXNSR0IArs4c6QAAAARnQU1BAACxjwv8YQUAAADbUExURQAAAAAAAAAAAAAAAAAAAAAAAAAAAAAAAAAAAAAAAAAAAAAAAAAAAAAAAAAAAAAAAAEBAQICAgMDAwQEBAUFBQYGBgkJCQsLCw8ODg8PDxAQEBERERMSEhUUFBYVFRcXFxgYGB0dHR4eHh8fHyAgICEhISMjIyUlJSoqKj09PUFBQUNDQ0REREZGRkdHR09PT1BQUFNTU1lVVVlZWV1ZWWZmZm1tbXFsbHR0dHZxcXp6en9/f4GBgYqKipSUlKenp6+vr7a2tru7u8PDw8fHx9DQ0NTU1N3d3efn56hgiP4AAAAPdFJOUwALEhU3RVl319nx9Pb4+aeRKqUAAAAJcEhZcwAAFxEAABcRAcom8z8AAAdsSURBVHhe7d17dxNlFMXhqfWC1ykVQQQFtIpyKSAXkTsi4vf/RDbnnJcMzCR6zq6zssLv+aez0nnnzF47bdM0nXTdBwXdzu9Df/83rBra3lWxkcKqoe1d9aLgrVn9UNzmbg+xaugdWfWGh0Nxm2PV0PauerXSg6G4zdUeEHXxQ9LFCfwbVg1t76rYSGHV0Pauisc4KW/Nih+SLm5z8UPSsWroHVn1hvgh6eI2x6qh7V0Vj3EmxEMhF7e57q3nAd4QRz4mjBIxSsQo0dGoOys9P1ZHo2Lo/45RIkaJGCVaOyoeVk+IHSbEA+4JjBqIHSbEcScwaiB2mBDHncCogdhhQhx3wtGolyvFcSfEDhNurrQ21WrxC96E2GECowbiuBNihwmMGojjTogdJjBqII47IXaY0M3po/jz1tgxf6br45fRsdXfvkufYVJgkmNSwyTHpIZJjknNxk+KZ5rH+njWeKz0me6Yzzw+jjGpYZJjUsMkx6SGSY5JzcZPihf1jR3zZ9ZlWi32GOvjmfIxJr0We4wxqYmjTok9xpjUxFGnxB5jTGriqFNijzEmNXHUKbHHGJOaOOqU2GNsQybFn7TH4qhTYo+xPv4MPrY2U3wc6+NPaGNr1jApMMkxqWGSY1LDJMekZuMnxb8yja35TPwv1NiaNfG6mTns9N/l9T/nzbZmkSn+LJixuvjVZltDptfI5MjkyOTItEQmRyZHJkemJTI5MjkyOTItkcmRyZUzfZ+30WsWmSJfxsb3FNsZZHJkcmRyZFoikyOTI5Mj0xKZHJkcmRyZlsjkyOTI5CzTN3nxouKcWJvRf5VX7qki1masfmn3amRairPMibUZZHJkWoqzzIm1GWRyZFqKs8yJtRlkcmRairPMibUZZHJkWoqzzIm1GWRyZFqKs8yJtRlkclua6b3+y7zSmpN5pTnVnuJjxup/OVutNIdMr5HJkcmRyZFpiUyOTI5MjkxLZHJkcmRyZFoikyOTK2bajWd1tse6939a7cP4uJHe7/pv41I4CfsHcYmahLMXYyPh4tnYSDj4pOt/i/+mSzj/LO65CbcexUbCo1uxkfDsBJEckQyRDJEMkRoiGSIZIhkiNUQyRDJEMkRqiGSIZIhkiNQQyRDJEMkQqSGSIZIhkiFSQyRDJEMkQ6SGSIZIphrp1ztpXz9+nnblbmwk3L0SGwmPP+76S3Gh3oRTF2Ij4cy52Eg4dyY2Ei582vWvorGEyxt+xyPSApEMkQyRDJEaIhkiGSIZIjVEMkQyRDJEaohkiGSIZIjUEMkQyRDJEKkhkiGSIZIhUkMkQyRDJEOkhkiGSKYa6Y8XaT88iY2E6/diI+He9dhIeHIU6Wy8LVLCflxMJuV0LE44fTLefinh1Ge1O16cZUrljncQV3BOuFr8WoqzTCHSApEMkRoiOSItEMkQqSGSI9ICkQyRGiI5Ii0QyRCpIZIj0gKRDJEaIjkiLRDJEKkhkiPSApEMkRoiOSItEMlsaaQ/X6b9GGeZcj8WJ9y/dDPtl6NI8d7QGXv7sZGwtxdvXJ2wtxeLE/Y/r93xKi+LOoz3vko43PBXehFpgUiGSA2RDJEMkQyRGiIZIhkiGSI1RDJEMkQyRGqIZIhkiGSI1BDJEMkQyRCpIZIhkiGSIVJDJEMkQySzpZH+epX209PYSLhx7UHatRuxOOHpUaRt80W3hXYjHDbW0f1up6+8m1nB+b7wfbLgVuWVfwWP+sL344Jn/QlaKqMlBS0paKmGlhS0pKAlBS3V0JKClhS0pKClGlpS0JKClhS0VENLClpS0JKClmpoSUFLClpS0FINLSloSUFLClqqoSUFLSloSUFLNbSkoCUFLSloqYaWFLSkoCUFLdXQkoKWFLSkoKUaWlLQkoKWFLRUQ0sKWlLQkoKWamhJMWtLXDtl4/m1UwrXiyq4zNdSSfuOR0sVtKSgJQUt1dCSgpYUtKSgpRpaUtCSgpYUtFRDSwpaUtCSgpZqaElBSwpaUtBSDS0paElBSwpaqqElBS0paElBSzW0pKAlBS0paKmGlhS0pKAlBS3V0JKClhS0pKClGlpS0JKClhS0VENLClpS0JKClmpoSUFLClpS0FINLSlmbYlrp2y8ea+dMpe5vpYObs/h6szf8eZCS3W0VENLClrS0FIdLdXQkoKWNLRUR0s1tKSgJQ0t1dFSDS0paElDS3W0VENLClrS0FIdLdXQkoKWNLRUR0s1tKSgJQ0t1dFSDS0paElDS3W0VENLClrS0FIdLdXQkoKWNLRUR0s1tKSgJQ0t1dFSDS0paElDS3W0VENLClrSbGFLXDtl48177ZS5rkN0+HAOh1wtSkBLClqqoSUFLSloSUFLNbSkoCUFLSloqYaWFLSkoCUFLdXQkoKWFLSkoKUaWlLQkoKWFLRUQ0sKWlLQkoKWamhJQUsKWlLQUg0tKWhJQUsKWqqhJQUtKWhJQUs1tKSgJQUtKWiphpYUtKSgJQUt1dCSgpYUtKSgpRpaUtCSYitb4topG++L7qim3Z15MKdmt+v+AdQZAoTNLx1oAAAAAElFTkSuQmCC;" vertex="1" parent="1">
          <mxGeometry x="400.93" y="619" width="98.75" height="80" as="geometry" />
        </mxCell>
        <mxCell id="5tPz83MsegSp8FZxeWKG-219" value="&lt;b&gt;Edges Infomation Matrix&lt;/b&gt;" style="text;html=1;strokeColor=none;fillColor=none;align=center;verticalAlign=middle;whiteSpace=wrap;rounded=0;shadow=0;sketch=0;" vertex="1" parent="1">
          <mxGeometry x="362.71" y="585" width="143" height="20" as="geometry" />
        </mxCell>
      </root>
    </mxGraphModel>
  </diagram>
</mxfile>
